<svg width="16" height="16" viewBox="0 0 16 16" fill="none" xmlns="http://www.w3.org/2000/svg">
<mask id="path-1-inside-1_1012_25857" fill="white">
<path d="M6.31334 10.1867C6.18668 10.1867 6.06001 10.14 5.96001 10.04C5.41334 9.49334 5.11334 8.76668 5.11334 8.00001C5.11334 6.40668 6.40668 5.11334 8.00001 5.11334C8.76668 5.11334 9.49334 5.41334 10.04 5.96001C10.1333 6.05334 10.1867 6.18001 10.1867 6.31334C10.1867 6.44668 10.1333 6.57334 10.04 6.66668L6.66668 10.04C6.56668 10.14 6.44001 10.1867 6.31334 10.1867ZM8.00001 6.11334C6.96001 6.11334 6.11334 6.96001 6.11334 8.00001C6.11334 8.33334 6.20001 8.65334 6.36001 8.93334L8.93334 6.36001C8.65334 6.20001 8.33334 6.11334 8.00001 6.11334Z"/>
</mask>
<path d="M6.31334 10.1867C6.18668 10.1867 6.06001 10.14 5.96001 10.04C5.41334 9.49334 5.11334 8.76668 5.11334 8.00001C5.11334 6.40668 6.40668 5.11334 8.00001 5.11334C8.76668 5.11334 9.49334 5.41334 10.04 5.96001C10.1333 6.05334 10.1867 6.18001 10.1867 6.31334C10.1867 6.44668 10.1333 6.57334 10.04 6.66668L6.66668 10.04C6.56668 10.14 6.44001 10.1867 6.31334 10.1867ZM8.00001 6.11334C6.96001 6.11334 6.11334 6.96001 6.11334 8.00001C6.11334 8.33334 6.20001 8.65334 6.36001 8.93334L8.93334 6.36001C8.65334 6.20001 8.33334 6.11334 8.00001 6.11334Z" fill="#455A64"/>
<path d="M6.36001 8.93334L5.31812 9.52871L6.0976 10.8928L7.20854 9.78187L6.36001 8.93334ZM8.93334 6.36001L9.78187 7.20854L10.8928 6.0976L9.52871 5.31812L8.93334 6.36001ZM6.31334 8.98668C6.48776 8.98668 6.67163 9.05458 6.80854 9.19148L5.11148 10.8885C5.44839 11.2254 5.88559 11.3867 6.31334 11.3867V8.98668ZM6.80854 9.19148C6.48666 8.8696 6.31334 8.44806 6.31334 8.00001H3.91334C3.91334 9.0853 4.34003 10.1171 5.11148 10.8885L6.80854 9.19148ZM6.31334 8.00001C6.31334 7.06942 7.06942 6.31334 8.00001 6.31334V3.91334C5.74393 3.91334 3.91334 5.74393 3.91334 8.00001H6.31334ZM8.00001 6.31334C8.44806 6.31334 8.8696 6.48666 9.19148 6.80854L10.8885 5.11148C10.1171 4.34003 9.0853 3.91334 8.00001 3.91334V6.31334ZM9.19148 6.80854C9.06234 6.67939 8.98668 6.50188 8.98668 6.31334H11.3867C11.3867 5.85814 11.2043 5.42729 10.8885 5.11148L9.19148 6.80854ZM8.98668 6.31334C8.98668 6.1248 9.06234 5.94729 9.19148 5.81815L10.8885 7.5152C11.2043 7.19939 11.3867 6.76855 11.3867 6.31334H8.98668ZM9.19148 5.81815L5.81815 9.19148L7.5152 10.8885L10.8885 7.5152L9.19148 5.81815ZM5.81815 9.19148C5.95505 9.05458 6.13892 8.98668 6.31334 8.98668V11.3867C6.74109 11.3867 7.1783 11.2254 7.5152 10.8885L5.81815 9.19148ZM8.00001 4.91334C6.29727 4.91334 4.91334 6.29727 4.91334 8.00001H7.31334C7.31334 7.62275 7.62275 7.31334 8.00001 7.31334V4.91334ZM4.91334 8.00001C4.91334 8.54278 5.05481 9.06792 5.31812 9.52871L7.4019 8.33797C7.34521 8.23876 7.31334 8.1239 7.31334 8.00001H4.91334ZM7.20854 9.78187L9.78187 7.20854L8.08481 5.51148L5.51148 8.08481L7.20854 9.78187ZM9.52871 5.31812C9.06792 5.05481 8.54278 4.91334 8.00001 4.91334V7.31334C8.1239 7.31334 8.23876 7.34521 8.33797 7.4019L9.52871 5.31812Z" fill="#455A64" mask="url(#path-1-inside-1_1012_25857)"/>
<path d="M3.73335 12.34C3.62002 12.34 3.50002 12.3 3.40668 12.22C2.69335 11.6134 2.05335 10.8667 1.50668 10C0.800018 8.90003 0.800018 7.10669 1.50668 6.00003C3.13335 3.45336 5.50002 1.98669 8.00002 1.98669C9.46668 1.98669 10.9134 2.49336 12.18 3.44669C12.4 3.61336 12.4467 3.92669 12.28 4.14669C12.1134 4.36669 11.8 4.41336 11.58 4.24669C10.4867 3.42003 9.24668 2.98669 8.00002 2.98669C5.84668 2.98669 3.78668 4.28003 2.34668 6.54003C1.84668 7.32003 1.84668 8.68003 2.34668 9.46003C2.84668 10.24 3.42002 10.9134 4.05335 11.46C4.26002 11.64 4.28668 11.9534 4.10668 12.1667C4.01335 12.28 3.87335 12.34 3.73335 12.34Z" fill="#455A64"/>
<path d="M8.00002 14.0134C7.11335 14.0134 6.24669 13.8334 5.41335 13.48C5.16002 13.3734 5.04002 13.08 5.14669 12.8267C5.25335 12.5734 5.54669 12.4534 5.80002 12.56C6.50669 12.86 7.24669 13.0134 7.99335 13.0134C10.1467 13.0134 12.2067 11.72 13.6467 9.46002C14.1467 8.68002 14.1467 7.32002 13.6467 6.54002C13.44 6.21335 13.2134 5.90002 12.9734 5.60669C12.8 5.39335 12.8334 5.08002 13.0467 4.90002C13.26 4.72669 13.5734 4.75335 13.7534 4.97335C14.0134 5.29335 14.2667 5.64002 14.4934 6.00002C15.2 7.10002 15.2 8.89335 14.4934 10C12.8667 12.5467 10.5 14.0134 8.00002 14.0134Z" fill="#455A64"/>
<path d="M8.45997 10.8467C8.22664 10.8467 8.01331 10.68 7.96664 10.44C7.91331 10.1667 8.09331 9.90665 8.36664 9.85999C9.09997 9.72665 9.71331 9.11332 9.84664 8.37999C9.89997 8.10665 10.16 7.93332 10.4333 7.97999C10.7066 8.03332 10.8866 8.29332 10.8333 8.56665C10.62 9.71999 9.69997 10.6333 8.55331 10.8467C8.51997 10.84 8.49331 10.8467 8.45997 10.8467Z" fill="#455A64"/>
<path d="M1.33336 15.1667C1.20669 15.1667 1.08002 15.12 0.980022 15.02C0.786689 14.8267 0.786689 14.5067 0.980022 14.3134L5.96002 9.33335C6.15335 9.14002 6.47336 9.14002 6.66669 9.33335C6.86002 9.52669 6.86002 9.84669 6.66669 10.04L1.68669 15.02C1.58669 15.12 1.46002 15.1667 1.33336 15.1667Z" fill="#455A64"/>
<path d="M9.68669 6.81336C9.56002 6.81336 9.43335 6.76669 9.33335 6.66669C9.14002 6.47336 9.14002 6.15335 9.33335 5.96002L14.3134 0.980022C14.5067 0.786689 14.8267 0.786689 15.02 0.980022C15.2134 1.17336 15.2134 1.49336 15.02 1.68669L10.04 6.66669C9.94002 6.76669 9.81335 6.81336 9.68669 6.81336Z" fill="#455A64"/>
</svg>
